<?xml version="1.0" standalone="no"?>
<!DOCTYPE svg PUBLIC "-//W3C//DTD SVG 20010904//EN"
 "http://www.w3.org/TR/2001/REC-SVG-20010904/DTD/svg10.dtd">
<svg version="1.0" xmlns="http://www.w3.org/2000/svg"
 width="260.000000pt" height="260.000000pt" viewBox="0 0 260.000000 260.000000"
 preserveAspectRatio="xMidYMid meet">
<metadata>
Created by potrace 1.11, written by Peter Selinger 2001-2013
</metadata>
<g transform="translate(0.000000,260.000000) scale(0.100000,-0.100000)"
fill="#000000" stroke="none">
<path d="M0 1300 l0 -1300 1300 0 1300 0 0 1300 0 1300 -1300 0 -1300 0 0
-1300z m1272 538 c72 -33 137 -93 168 -154 21 -43 25 -46 34 -30 93 159 214
225 389 214 109 -7 189 -42 253 -110 91 -97 104 -162 104 -535 l0 -263 70 0
70 0 0 -115 0 -115 -230 0 -230 0 0 348 c0 436 -10 486 -103 534 -32 16 -54
19 -107 16 -86 -5 -137 -36 -171 -105 -23 -46 -24 -58 -27 -300 l-3 -253 75 0
76 0 0 -120 0 -120 -234 0 -235 0 -3 373 -3 372 -28 58 c-36 72 -78 97 -164
97 -103 0 -177 -54 -203 -149 -5 -20 -10 -143 -10 -273 l0 -238 105 0 105 0 0
-120 0 -120 -340 0 -340 0 0 120 0 120 75 0 75 0 -2 318 -3 317 -72 3 -73 3 0
119 0 120 230 0 230 0 0 -80 c0 -44 3 -80 8 -80 4 1 21 20 38 43 38 52 98 94
167 119 78 28 232 21 309 -14z"/>
</g>
</svg>
