<?xml version="1.0" encoding="utf-8"?>
<!-- Generator: Adobe Illustrator 26.2.1, SVG Export Plug-In . SVG Version: 6.00 Build 0)  -->
<svg version="1.1" id="Layer_1" xmlns="http://www.w3.org/2000/svg" xmlns:xlink="http://www.w3.org/1999/xlink" x="0px" y="0px"
	 viewBox="0 0 257.7 104.2" style="enable-background:new 0 0 257.7 104.2;" xml:space="preserve">
<style type="text/css">
	.st0{fill:none;}
	.st1{fill:#FDE94A;}
	.st2{opacity:0.25;}
	.st3{enable-background:new    ;}
	.st4{fill:#625A18;}
	.st5{fill:#FFED00;}
	.st6{fill:url(#SVGID_00000078044402165790018850000016999737202880091292_);}
</style>
<pattern  y="104.2" width="28.8" height="28.8" patternUnits="userSpaceOnUse" id="SVGID_1_" viewBox="2.2 -30.9 28.8 28.8" style="overflow:visible;">
	<g>
		<rect x="2.2" y="-30.9" class="st0" width="28.8" height="28.8"/>
		<g>
			<rect x="2.2" y="-30.9" class="st0" width="28.8" height="28.8"/>
			<g>
				<rect x="2.2" y="-30.9" class="st0" width="28.8" height="28.8"/>
				<g>
					<path class="st1" d="M31,0c1.2,0,2.2-1,2.2-2.2s-1-2.2-2.2-2.2s-2.2,1-2.2,2.2C28.8-0.9,29.8,0,31,0z"/>
					<path class="st1" d="M16.6,0c1.2,0,2.2-1,2.2-2.2s-1-2.2-2.2-2.2s-2.2,1-2.2,2.2C14.4-0.9,15.4,0,16.6,0z"/>
					<path class="st1" d="M31-14.4c1.2,0,2.2-1,2.2-2.2s-1-2.2-2.2-2.2s-2.2,1-2.2,2.2S29.8-14.4,31-14.4z"/>
					<path class="st1" d="M16.6-14.4c1.2,0,2.2-1,2.2-2.2s-1-2.2-2.2-2.2s-2.2,1-2.2,2.2S15.4-14.4,16.6-14.4z"/>
					<path class="st1" d="M9.4-7.2c1.2,0,2.2-1,2.2-2.2s-1-2.2-2.2-2.2s-2.2,1-2.2,2.2S8.2-7.2,9.4-7.2z"/>
					<path class="st1" d="M23.8-7.2c1.2,0,2.2-1,2.2-2.2s-1-2.2-2.2-2.2s-2.2,1-2.2,2.2S22.6-7.2,23.8-7.2z"/>
					<path class="st1" d="M9.4-21.6c1.2,0,2.2-1,2.2-2.2c0-1.2-1-2.2-2.2-2.2s-2.2,1-2.2,2.2C7.2-22.6,8.2-21.6,9.4-21.6z"/>
					<path class="st1" d="M23.8-21.6c1.2,0,2.2-1,2.2-2.2c0-1.2-1-2.2-2.2-2.2s-2.2,1-2.2,2.2C21.6-22.6,22.6-21.6,23.8-21.6z"/>
				</g>
				<g>
					<path class="st1" d="M2.2,0c1.2,0,2.2-1,2.2-2.2s-1-2.2-2.2-2.2S0-3.3,0-2.1S1,0,2.2,0z"/>
					<path class="st1" d="M2.2-14.4c1.2,0,2.2-1,2.2-2.2s-1-2.2-2.2-2.2S0-17.7,0-16.5S1-14.4,2.2-14.4z"/>
				</g>
				<g>
					<path class="st1" d="M31-28.8c1.2,0,2.2-1,2.2-2.2s-1-2.1-2.2-2.1s-2.2,1-2.2,2.2C28.8-29.7,29.8-28.8,31-28.8z"/>
					<path class="st1" d="M16.6-28.8c1.2,0,2.2-1,2.2-2.2s-1-2.1-2.2-2.1s-2.2,1-2.2,2.2C14.4-29.7,15.4-28.8,16.6-28.8z"/>
				</g>
				<path class="st1" d="M2.2-28.8c1.2,0,2.2-1,2.2-2.2s-1-2.1-2.2-2.1S0-32.1,0-30.9C0-29.7,1-28.8,2.2-28.8z"/>
			</g>
		</g>
	</g>
</pattern>
<g>
	<g id="a">
		<g>
			<g class="st2">
				<g class="st3">
					<path class="st4" d="M72.5,71.3v5.1H58.1V98h-5.5V76.4h-41l-0.1,0.3v-0.3H8.2v-4.3L53.6,6.3h4.6v65H72.5z M15.1,71.3h37.6V17
						L15.1,71.3z"/>
				</g>
				<g class="st3">
					<path class="st4" d="M244.3,58.8c2.9,3.8,4.3,8.6,4.3,14.4c0,7.9-2.5,14.1-7.5,18.7s-11.8,6.9-20.3,6.9c-5.7,0-11.2-1-16.4-3.1
						s-9.8-5.1-13.6-9l2.7-4.6c4.2,3.9,8.6,6.8,13.1,8.6c4.5,1.9,9.3,2.8,14.4,2.8c7,0,12.5-1.7,16.3-5.2c3.9-3.5,5.8-8.4,5.8-14.8
						c0-6.5-2-11.4-6.1-14.8c-4.1-3.3-10.1-5-17.9-5H210v-5.1h7.2c7.5,0,13.4-1.8,17.7-5.5c4.2-3.7,6.4-8.8,6.4-15.4
						c0-5.5-1.7-9.8-5.1-12.9c-3.4-3-8.1-4.5-14.2-4.5c-4.8,0-9.3,0.9-13.7,2.8s-8.8,4.7-13.2,8.6l-2.7-4.5
						c3.7-3.8,8.2-6.8,13.3-8.9c5.2-2.1,10.5-3.2,16.2-3.2c7.7,0,13.8,2,18.3,6.1s6.8,9.6,6.8,16.6c0,5.4-1.3,10.1-4,14.2
						c-2.6,4.1-6.3,7-10.9,8.7C237.3,52.4,241.5,55,244.3,58.8z"/>
				</g>
				<path class="st4" d="M130.4,9.9c23.9,0,43.3,19.4,43.3,43.3s-19.4,43.3-43.3,43.3S87.2,77,87.2,53.1S106.6,9.9,130.4,9.9
					 M130.4,4.9c-26.6,0-48.3,21.7-48.3,48.3s21.7,48.3,48.3,48.3s48.3-21.7,48.3-48.3S157.1,4.9,130.4,4.9L130.4,4.9z"/>
			</g>
			<g class="st3">
				<path d="M68.5,67.8v5.1H54.1v21.6h-5.5V72.9h-41l-0.1,0.3v-0.3H4.2v-4.3L49.6,2.8h4.6v65H68.5z M11.1,67.8h37.6V13.5L11.1,67.8z
					"/>
			</g>
			<g class="st3">
				<path d="M240.3,55.4c2.9,3.8,4.3,8.6,4.3,14.4c0,7.9-2.5,14.1-7.5,18.7s-11.8,6.9-20.3,6.9c-5.7,0-11.2-1-16.4-3.1
					s-9.8-5.1-13.6-9l2.7-4.6c4.2,3.9,8.6,6.8,13.1,8.6c4.5,1.9,9.3,2.8,14.4,2.8c7,0,12.5-1.7,16.3-5.2c3.9-3.5,5.8-8.4,5.8-14.8
					c0-6.5-2-11.4-6.1-14.8c-4.1-3.3-10.1-5-17.9-5H206v-5.1h7.2c7.5,0,13.4-1.8,17.7-5.5c4.2-3.7,6.4-8.8,6.4-15.4
					c0-5.5-1.7-9.8-5.1-12.9c-3.4-3-8.1-4.5-14.2-4.5c-4.8,0-9.3,0.9-13.7,2.8s-8.8,4.7-13.2,8.6l-2.7-4.5c3.7-3.8,8.2-6.8,13.3-8.9
					c5.2-2.1,10.5-3.2,16.2-3.2c7.7,0,13.8,2,18.3,6.1s6.8,9.6,6.8,16.6c0,5.4-1.3,10.1-4,14.2c-2.6,4.1-6.3,7-10.9,8.7
					C233.3,48.9,237.5,51.6,240.3,55.4z"/>
			</g>
		</g>
		<g>
			<g>
				<path class="st5" d="M126.2,96.4c-25.2,0-45.8-20.5-45.8-45.8S101,4.8,126.2,4.8S172,25.4,172,50.6S151.5,96.4,126.2,96.4
					L126.2,96.4z"/>
				<path d="M126.2,7.3c23.9,0,43.3,19.4,43.3,43.3s-19.4,43.3-43.3,43.3S83,74.5,83,50.6S102.3,7.3,126.2,7.3 M126.2,2.3
					C99.6,2.3,78,24,78,50.6s21.7,48.3,48.3,48.3s48.3-21.7,48.3-48.3S152.9,2.3,126.2,2.3L126.2,2.3z"/>
			</g>
			<g>
				
					<pattern  id="SVGID_00000083807698544971110950000014552524698211276461_" xlink:href="#SVGID_1_" patternTransform="matrix(0.2826 -0.2826 0.2826 0.2826 -19312.2227 5121.7065)">
				</pattern>
				<circle style="fill:url(#SVGID_00000083807698544971110950000014552524698211276461_);" cx="126.2" cy="50.7" r="43.2"/>
			</g>
			<path d="M140.5,73.1c-3.5-3.3-8.3-5.2-13.5-5.4c-5.8-0.2-11.2,1.7-15.1,5.4c-1.9-1.9-1.5-1.7-2.9-3.1c4.6-4.4,11.2-6.8,18.1-6.5
				c6.2,0.2,11.9,2.5,16.2,6.5C141.2,72.2,141.7,71.9,140.5,73.1L140.5,73.1z"/>
			<g>
				<path d="M152.2,55.7c-0.1,0-0.3,0-0.4-0.1l-9.2-2.7c-0.6-0.2-0.9-0.6-1-1.2c-0.1-0.6,0.2-1.1,0.8-1.4c0,0,7.1-3.7,9.3-4.8
					c0.7-0.4,2,2.1,1.3,2.5c-1.2,0.6-4,2.1-6.2,3.2l5.8,1.7C153.3,53.2,152.8,55.7,152.2,55.7z"/>
				<path d="M100.3,55.7c-0.6,0-1.1-2.5-0.4-2.8l5.8-1.7c-2.2-1.2-5-2.6-6.2-3.2c-0.7-0.4,0.6-2.9,1.3-2.5c2.1,1.1,9.3,4.8,9.3,4.8
					c0.5,0.3,0.8,0.8,0.8,1.4c-0.1,0.6-0.5,1.1-1,1.2l-9.2,2.7C100.6,55.7,100.4,55.7,100.3,55.7L100.3,55.7z"/>
			</g>
			<g>
				<path d="M143,36c2.8,2.4,6.4,3.9,10,4.2c0.2-2.2,0.1-0.6,0.2-2.4c-3.2-0.3-6.2-1.6-8.6-3.7C143.1,35.8,144.2,34.5,143,36z"/>
				<path d="M109.5,36c-2.8,2.4-6.3,3.9-10,4.2c-0.2-2.2-0.1-0.6-0.2-2.4c3.2-0.3,6.2-1.6,8.7-3.7C109.4,35.8,108.2,34.5,109.5,36z"
					/>
			</g>
		</g>
	</g>
</g>
</svg>
