<?xml version="1.0" encoding="UTF-8"?><svg xmlns="http://www.w3.org/2000/svg" xmlns:xlink="http://www.w3.org/1999/xlink" viewBox="0 0 257.74 104.15"><defs><style>.c{fill:url(#b);}.d{fill:none;}.e{fill:#ffed00;}.f{fill:#fde94a;}.g,.h{fill:#625a18;}.i,.h{font-family:NunitoSans-ExtraLight, Nunito Sans;font-size:130px;}.j{mix-blend-mode:overlay;}.k{opacity:.25;}.l{isolation:isolate;}</style><pattern id="b" x="0" y="0" width="28.8" height="28.8" patternTransform="translate(-5833.99 -5153.48) scale(.4)" patternUnits="userSpaceOnUse" viewBox="0 0 28.8 28.8"><g><rect class="d" x="0" width="28.8" height="28.8"/><g><path class="f" d="M28.8,30.96c1.19,0,2.16-.97,2.16-2.16s-.97-2.16-2.16-2.16-2.16,.97-2.16,2.16,.97,2.16,2.16,2.16Z"/><path class="f" d="M14.4,30.96c1.19,0,2.16-.97,2.16-2.16s-.97-2.16-2.16-2.16-2.16,.97-2.16,2.16,.97,2.16,2.16,2.16Z"/><path class="f" d="M28.8,16.56c1.19,0,2.16-.97,2.16-2.16s-.97-2.16-2.16-2.16-2.16,.97-2.16,2.16,.97,2.16,2.16,2.16Z"/><path class="f" d="M14.4,16.56c1.19,0,2.16-.97,2.16-2.16s-.97-2.16-2.16-2.16-2.16,.97-2.16,2.16,.97,2.16,2.16,2.16Z"/><path class="f" d="M7.2,23.76c1.19,0,2.16-.97,2.16-2.16s-.97-2.16-2.16-2.16-2.16,.97-2.16,2.16,.97,2.16,2.16,2.16Z"/><path class="f" d="M21.6,23.76c1.19,0,2.16-.97,2.16-2.16s-.97-2.16-2.16-2.16-2.16,.97-2.16,2.16,.97,2.16,2.16,2.16Z"/><path class="f" d="M7.2,9.36c1.19,0,2.16-.97,2.16-2.16s-.97-2.16-2.16-2.16-2.16,.97-2.16,2.16,.97,2.16,2.16,2.16Z"/><path class="f" d="M21.6,9.36c1.19,0,2.16-.97,2.16-2.16s-.97-2.16-2.16-2.16-2.16,.97-2.16,2.16,.97,2.16,2.16,2.16Z"/></g><g><path class="f" d="M0,30.96c1.19,0,2.16-.97,2.16-2.16S1.19,26.64,0,26.64s-2.16,.97-2.16,2.16S-1.19,30.96,0,30.96Z"/><path class="f" d="M0,16.56c1.19,0,2.16-.97,2.16-2.16S1.19,12.24,0,12.24s-2.16,.97-2.16,2.16S-1.19,16.56,0,16.56Z"/></g><g><path class="f" d="M28.8,2.16c1.19,0,2.16-.97,2.16-2.16s-.97-2.16-2.16-2.16S26.64-1.19,26.64,0s.97,2.16,2.16,2.16Z"/><path class="f" d="M14.4,2.16C15.59,2.16,16.56,1.19,16.56,0s-.97-2.16-2.16-2.16S12.24-1.19,12.24,0s.97,2.16,2.16,2.16Z"/></g><path class="f" d="M0,2.16C1.19,2.16,2.16,1.19,2.16,0S1.19-2.16,0-2.16-2.16-1.19-2.16,0-1.19,2.16,0,2.16Z"/></g></pattern></defs><g class="l"><g id="a"><g><g class="k"><text class="h" transform="translate(.4 97.98)"><tspan x="0" y="0">4</tspan></text><text class="h" transform="translate(181.92 97.98)"><tspan x="0" y="0">3</tspan></text><path class="g" d="M130.45,9.86c23.9,0,43.28,19.37,43.28,43.28s-19.38,43.28-43.28,43.28-43.28-19.38-43.28-43.28S106.55,9.86,130.45,9.86m0-5c-26.62,0-48.28,21.66-48.28,48.28s21.66,48.28,48.28,48.28,48.28-21.66,48.28-48.28S157.07,4.86,130.45,4.86h0Z"/></g><text class="i" transform="translate(-3.6 94.5)"><tspan x="0" y="0">4</tspan></text><text class="i" transform="translate(177.92 94.5)"><tspan x="0" y="0">3</tspan></text></g><g><g><path class="e" d="M126.23,96.4c-25.24,0-45.78-20.54-45.78-45.78S100.99,4.85,126.23,4.85s45.78,20.54,45.78,45.78-20.54,45.78-45.78,45.78Z"/><path d="M126.23,7.35c23.9,0,43.28,19.38,43.28,43.28s-19.37,43.28-43.28,43.28-43.28-19.37-43.28-43.28S102.33,7.35,126.23,7.35m0-5c-26.62,0-48.28,21.66-48.28,48.28s21.66,48.28,48.28,48.28,48.28-21.66,48.28-48.28S152.85,2.35,126.23,2.35h0Z"/></g><g class="j"><circle class="c" cx="126.34" cy="50.77" r="43.28" transform="translate(1.11 104.2) rotate(-45)"/></g><path d="M140.52,73.07c-3.52-3.28-8.31-5.2-13.49-5.4-5.76-.22-11.24,1.74-15.05,5.38-1.92-1.92-1.51-1.65-2.92-3.06,4.63-4.42,11.25-6.81,18.13-6.55,6.19,.24,11.95,2.55,16.22,6.53-2.22,2.22-1.74,1.95-2.88,3.1Z"/><g><path d="M152.16,55.74c-.13,0-.26-.02-.4-.06l-9.19-2.68c-.55-.16-.95-.64-1.01-1.22-.06-.57,.24-1.12,.76-1.39,0,0,7.15-3.7,9.29-4.84,.69-.37,2.02,2.12,1.33,2.49-1.2,.64-3.98,2.09-6.19,3.23l5.81,1.7c.75,.22,.22,2.77-.4,2.77Z"/><path d="M100.3,55.74c-.61,0-1.14-2.55-.39-2.77l5.81-1.7c-2.21-1.15-4.99-2.59-6.19-3.23-.69-.37,.64-2.86,1.33-2.49,2.14,1.14,9.29,4.84,9.29,4.84,.51,.27,.81,.82,.76,1.39-.06,.57-.46,1.06-1.01,1.22l-9.19,2.68c-.13,.04-.26,.06-.4,.06Z"/></g><g><path d="M142.99,35.95c2.79,2.4,6.35,3.9,10.01,4.23,.19-2.17,.06-.63,.22-2.43-3.16-.28-6.24-1.58-8.65-3.65-1.49,1.74-.36,.41-1.58,1.85Z"/><path d="M109.47,35.95c-2.79,2.4-6.35,3.9-10.01,4.23-.19-2.17-.06-.63-.22-2.43,3.16-.28,6.24-1.58,8.65-3.65,1.49,1.74,.36,.41,1.58,1.85Z"/></g></g></g></g></svg>