<?xml version="1.0" encoding="utf-8"?>
<!-- Generator: Adobe Illustrator 23.0.1, SVG Export Plug-In . SVG Version: 6.00 Build 0)  -->
<svg version="1.1" id="Layer_2" xmlns="http://www.w3.org/2000/svg" xmlns:xlink="http://www.w3.org/1999/xlink" x="0px" y="0px"
	 viewBox="0 0 362.8 103.7" style="enable-background:new 0 0 362.8 103.7;" xml:space="preserve">
<style type="text/css">
	.st0{fill:#FFFFFF;}
</style>
<path class="st0" d="M346.8,74.9c-0.7,0.2-1.3,0.3-1.9,0.3c-2.1,0-3.1-0.9-3.1-3.5V52c0-10.4-8.3-15.4-18-15.4
	c-7.4,0-11.5,0.9-19.4,4.1l-1.8,10.4l10.4,1.1l1.5-5.1c2.1-1.1,4.2-1.3,6.9-1.3c7.3,0,7.4,5.5,7.4,10.2v1.5
	c-2.3-0.3-4.9-0.4-7.4-0.4c-10.4,0-21.1,2.6-21.1,13.8c0,9.5,7.4,13,14,13c7.3,0,12-4.4,14.6-9.1c0.6,5.5,3.9,9.1,10,9.1
	c2.8,0,5.7-0.8,8.2-2.1L346.8,74.9L346.8,74.9z M318.9,74.6c-3.9,0-5.3-2.3-5.3-5.2c0-4.9,4-6.2,8.7-6.2c2.1,0,4.4,0.3,6.5,0.6
	C328.4,71.3,323.5,74.6,318.9,74.6L318.9,74.6z M301.5,13.7l-19.6,69.2h-12.8l19.6-69.2H301.5z M275.1,13.7l-19.6,69.2h-12.8
	l19.6-69.2H275.1L275.1,13.7z M220.6,37.5h13.6v16.3h-13.6V37.5z M220.6,66.6h13.6v16.3h-13.6V66.6z M200.8,66l10.3,1l-2.8,15.9
	h-39.7l-1.3-6.8l25-28.7h-14.2l-2,7l-9.4-1l1.6-15.9h39.9l1,6.8L184,73h14.7L200.8,66L200.8,66z M135.8,36.6
	c-16.3,0-24.4,11-24.4,24.3c0,14.5,9.7,23,23.7,23c14.5,0,25-9.2,25-23.7C160,47.6,152.1,36.6,135.8,36.6z M135.5,73.9
	c-7,0-10.7-6-10.7-13.9c0-8.6,4.1-13.5,10.8-13.5c6.1,0,11.1,4.1,11.1,13.3C146.6,68.5,142.2,73.9,135.5,73.9L135.5,73.9z M99.7,73
	h6v9.9h-19V57.3c0-7.9-2.6-10.9-7.7-10.9c-6.2,0-8.8,4.4-8.8,10.8V73h6v9.9h-19V57.3c0-7.9-2.6-10.9-7.8-10.9
	c-6.2,0-8.8,4.4-8.8,10.8V73h8.7v9.9H21.7V73h6V47.3h-6v-9.9h19v6.8c2.7-4.8,7.4-7.7,13.8-7.7c6.5,0,12.6,3.1,14.8,9.8
	c2.5-6,7.6-9.8,14.8-9.8c8.2,0,15.6,4.9,15.6,15.7L99.7,73L99.7,73z"/>
</svg>
